# xmcd
#
# Track frame offsets: 
#        150
#        13964
#        26051
#        37942
#        50466
#        64335
#        67355
#        89457
#        110298
#        130543
#        143795
#        156758
#        171637
#        184923
#        199646
#        214072
#        228208
#        241146
#        254300
#
# Disc length: 3564 seconds
#
# Revision: 0
# Processed by: cddbd v1.5.2PL0 Copyright (c) Steve Scherf et al.
# Submitted via: ExactAudioCopy v0.95b3
#
DISCID=120dea13
DTITLE=The Monkees - The Monkees Complete 13 of 28
DYEAR=1900
DGENRE=
TTITLE0=Salesman (alt. mix 1)
TTITLE1=Salesman (alt. mix 2)
TTITLE2=Salesman (4.1 composite)
TTITLE3=She Hangs Out (alt. mix 1)
TTITLE4=She Hangs Out (alt. mix 2)
TTITLE5=Special Announcement
TTITLE6=Star Collector (alt. mix 1)
TTITLE7=Star Collector (alt. mix 2)
TTITLE8=Star Collector (alt. mix 3)
TTITLE9=The Door Into Summer (alt. mix 1)
TTITLE10=The Door Into Summer (alt. mix 2)
TTITLE11=The Door Into Summer (4.1 composite)
TTITLE12=The Door Into Summer (4.1 composite alt. mix)
TTITLE13=What Am I Doing Hangin' 'Round? (alt. mix 1)
TTITLE14=What Am I Doing Hangin' 'Round? (alt. mix 2)
TTITLE15=Words (1st version)
TTITLE16=Words (1st version alt. mix)
TTITLE17=Words (2nd version single mix)
TTITLE18=Words (2nd version alt. mix)
EXTD=
EXTT0=
EXTT1=
EXTT2=
EXTT3=
EXTT4=
EXTT5=
EXTT6=
EXTT7=
EXTT8=
EXTT9=
EXTT10=
EXTT11=
EXTT12=
EXTT13=
EXTT14=
EXTT15=
EXTT16=
EXTT17=
EXTT18=
PLAYORDER=
